<svg width="20" height="20" viewBox="0 0 20 20" fill="none" xmlns="http://www.w3.org/2000/svg">
<path d="M5.83887 10C5.83887 9.83425 5.90472 9.67527 6.02193 9.55806C6.13914 9.44085 6.29811 9.37501 6.46387 9.37501H9.3747V6.46417C9.3747 6.29841 9.44055 6.13944 9.55776 6.02223C9.67497 5.90502 9.83394 5.83917 9.9997 5.83917C10.1655 5.83917 10.3244 5.90502 10.4416 6.02223C10.5589 6.13944 10.6247 6.29841 10.6247 6.46417V9.37501H13.5355C13.7013 9.37501 13.8603 9.44085 13.9775 9.55806C14.0947 9.67527 14.1605 9.83425 14.1605 10C14.1605 10.1658 14.0947 10.3247 13.9775 10.4419C13.8603 10.5592 13.7013 10.625 13.5355 10.625H10.6247V13.5358C10.6247 13.7016 10.5589 13.8606 10.4416 13.9778C10.3244 14.095 10.1655 14.1608 9.9997 14.1608C9.83394 14.1608 9.67497 14.095 9.55776 13.9778C9.44055 13.8606 9.3747 13.7016 9.3747 13.5358V10.625H6.46387C6.29811 10.625 6.13914 10.5592 6.02193 10.4419C5.90472 10.3247 5.83887 10.1658 5.83887 10Z" fill="#9E090F"/>
<path fill-rule="evenodd" clip-rule="evenodd" d="M6.09771 3.14083C8.69144 2.85328 11.309 2.85328 13.9027 3.14083C15.4252 3.31083 16.6544 4.51 16.8327 6.04083C17.141 8.67167 17.141 11.3292 16.8327 13.96C16.6535 15.4908 15.4244 16.6892 13.9027 16.86C11.309 17.1475 8.69144 17.1475 6.09771 16.86C4.57521 16.6892 3.34605 15.4908 3.16771 13.96C2.86076 11.3292 2.86076 8.67163 3.16771 6.04083C3.34605 4.51 4.57605 3.31083 6.09771 3.14083ZM13.7644 4.3825C11.2626 4.10519 8.73783 4.10519 6.23605 4.3825C5.77292 4.43388 5.34063 4.63989 5.00903 4.96726C4.67743 5.29463 4.46587 5.72423 4.40855 6.18667C4.11216 8.72081 4.11216 11.2809 4.40855 13.815C4.46605 14.2773 4.67768 14.7067 5.00926 15.0339C5.34085 15.3611 5.77304 15.567 6.23605 15.6183C8.71688 15.895 11.2835 15.895 13.7644 15.6183C14.2272 15.5668 14.6592 15.3608 14.9907 15.0337C15.3221 14.7065 15.5336 14.2772 15.591 13.815C15.8874 11.2809 15.8874 8.72081 15.591 6.18667C15.5334 5.72466 15.3218 5.29554 14.9904 4.96852C14.659 4.6415 14.2271 4.43565 13.7644 4.38417" fill="#9E090F"/>
</svg>
