<svg width="20" height="20" viewBox="0 0 20 20" fill="none" xmlns="http://www.w3.org/2000/svg">
<path d="M12.0837 10.0008C12.0837 10.5533 11.8642 11.0833 11.4735 11.474C11.0828 11.8647 10.5529 12.0841 10.0003 12.0841C9.44779 12.0841 8.91789 11.8647 8.52719 11.474C8.13649 11.0833 7.91699 10.5533 7.91699 10.0008C7.91699 9.44828 8.13649 8.91838 8.52719 8.52767C8.91789 8.13697 9.44779 7.91748 10.0003 7.91748C10.5529 7.91748 11.0828 8.13697 11.4735 8.52767C11.8642 8.91838 12.0837 9.44828 12.0837 10.0008Z" stroke="currentColor" stroke-width="1.5" stroke-linecap="round" stroke-linejoin="round"/>
<path d="M13.3337 4.16749C15.4003 4.16749 16.8253 4.48749 17.6112 4.73082C18.0637 4.87082 18.3337 5.29999 18.3337 5.77332V13.9025C18.3337 14.8317 17.3103 15.5308 16.397 15.3583C15.6137 15.2108 14.5928 15.0917 13.3337 15.0917C9.37534 15.0917 8.42534 16.5967 2.62117 15.3167C2.34933 15.255 2.10664 15.1025 1.93316 14.8844C1.75968 14.6662 1.6658 14.3954 1.667 14.1167V5.76749C1.667 4.95416 2.43367 4.36166 3.232 4.51999C8.49784 5.56499 9.51784 4.16749 13.3337 4.16749Z" stroke="currentColor" stroke-width="1.5" stroke-linecap="round" stroke-linejoin="round"/>
<path d="M1.66699 7.50083C3.29283 7.50083 4.75449 6.17167 4.94116 4.79583M15.417 4.58417C15.417 6.28417 16.8878 7.89167 18.3337 7.89167M18.3337 12.5008C16.7503 12.5008 15.217 13.5925 15.0853 15.0825M5.00033 15.4142C5.00033 14.5301 4.64914 13.6823 4.02401 13.0571C3.39889 12.432 2.55105 12.0808 1.66699 12.0808" stroke="currentColor" stroke-width="1.5" stroke-linecap="round" stroke-linejoin="round"/>
</svg>
