<svg width="37" height="36" viewBox="0 0 37 36" fill="currentColor" xmlns="http://www.w3.org/2000/svg">
<path d="M19.6469 9.59766H17.9559C17.8012 9.59766 17.6746 9.72422 17.6746 9.87891V19.5574C17.6746 19.6488 17.7168 19.7332 17.7906 19.7859L23.602 24.0293C23.7285 24.1207 23.9043 24.0961 23.9957 23.9695L25.0012 22.5984C25.0961 22.4684 25.068 22.2926 24.9414 22.2047L19.9281 18.5801V9.87891C19.9281 9.72422 19.8016 9.59766 19.6469 9.59766ZM27.3742 12.2414L32.8867 13.5879C33.0625 13.6301 33.2348 13.4965 33.2348 13.3172L33.2629 7.63946C33.2629 7.40391 32.9922 7.27032 32.8094 7.41797L27.2688 11.7457C27.2269 11.7781 27.195 11.8217 27.1768 11.8714C27.1586 11.9211 27.1547 11.9749 27.1657 12.0267C27.1768 12.0785 27.2022 12.1261 27.2391 12.1641C27.2759 12.2021 27.3228 12.2289 27.3742 12.2414ZM33.2699 22.827L31.2766 22.1414C31.2071 22.1176 31.131 22.1219 31.0646 22.1534C30.9983 22.185 30.9469 22.2412 30.9215 22.3102C30.8547 22.4895 30.7844 22.6652 30.7105 22.841C30.0848 24.3211 29.1883 25.6535 28.0422 26.7961C26.9088 27.933 25.5656 28.8392 24.0871 29.4645C22.5554 30.112 20.909 30.4444 19.2461 30.4418C17.5656 30.4418 15.9379 30.1148 14.4051 29.4645C12.9265 28.8392 11.5834 27.933 10.45 26.7961C9.30742 25.6535 8.41094 24.3211 7.78164 22.841C7.1376 21.3085 6.80765 19.6623 6.81133 18C6.81133 16.3195 7.13828 14.6883 7.78867 13.1555C8.41445 11.6754 9.31094 10.343 10.457 9.2004C11.5904 8.06351 12.9336 7.15731 14.4121 6.53204C15.9379 5.88164 17.5691 5.55469 19.2496 5.55469C20.9301 5.55469 22.5578 5.88164 24.0906 6.53204C25.5692 7.15731 26.9123 8.06351 28.0457 9.2004C28.4043 9.5625 28.7418 9.93868 29.0512 10.3359L31.1535 8.69063C28.3867 5.15391 24.0801 2.8793 19.2426 2.88282C10.8191 2.88633 4.05508 9.72774 4.13945 18.1547C4.22383 26.434 10.9563 33.1172 19.2496 33.1172C25.7711 33.1172 31.3258 28.9828 33.4422 23.1926C33.4949 23.0449 33.4176 22.8797 33.2699 22.827Z" fill="currentColor"/>
</svg>
