<svg width="36" height="37" viewBox="0 0 36 37" fill="currentColor" xmlns="http://www.w3.org/2000/svg">
<path fill-rule="evenodd" clip-rule="evenodd" d="M20.3375 9.101C19.709 8.49779 18.8716 8.16096 18.0005 8.16096C17.1293 8.16096 16.292 8.49779 15.6635 9.101L8.72446 15.761C8.55453 15.9243 8.44014 16.1367 8.39746 16.3685C7.56517 20.9007 7.50381 25.5409 8.21596 30.0935L8.38396 31.175H12.8495V21.8585C12.8495 21.5601 12.968 21.274 13.179 21.063C13.3899 20.852 13.6761 20.7335 13.9745 20.7335H22.0265C22.3248 20.7335 22.611 20.852 22.822 21.063C23.0329 21.274 23.1515 21.5601 23.1515 21.8585V31.175H27.617L27.785 30.095C28.4978 25.542 28.4369 20.9013 27.605 16.3685C27.5619 16.1366 27.4469 15.924 27.2765 15.761L20.3375 9.101ZM14.1065 7.478C15.1538 6.47324 16.5491 5.91223 18.0005 5.91223C19.4519 5.91223 20.8471 6.47324 21.8945 7.478L28.835 14.138C29.345 14.627 29.69 15.266 29.8175 15.962C30.6923 20.7437 30.7567 25.6385 30.008 30.4415L29.738 32.177C29.6848 32.5252 29.5083 32.8427 29.2407 33.0718C28.9731 33.3008 28.6322 33.4262 28.28 33.425H22.0265C21.7281 33.425 21.4419 33.3065 21.231 33.0955C21.02 32.8845 20.9015 32.5984 20.9015 32.3V22.9835H15.0995V32.3C15.0995 32.5984 14.9809 32.8845 14.77 33.0955C14.559 33.3065 14.2728 33.425 13.9745 33.425H7.72096C7.36873 33.4262 7.02779 33.3008 6.7602 33.0718C6.4926 32.8427 6.31615 32.5252 6.26296 32.177L5.99296 30.4415C5.24418 25.6385 5.30858 20.7437 6.18346 15.962C6.31096 15.266 6.65596 14.627 7.16596 14.1365L14.1065 7.478Z" fill="#currentColor"/>
</svg>
