<svg width="207" height="27" viewBox="0 0 207 27" fill="none" xmlns="http://www.w3.org/2000/svg">
<path d="M1.95 17.1C2.48333 16.2 3.51667 14.1417 5.05 10.925C6.58333 7.70833 7.9 5.45 9 4.15C9.16667 3.91667 9.35 3.7 9.55 3.5C9.95 3.06667 10.5 2.74167 11.2 2.525C11.9 2.30833 12.5333 2.33333 13.1 2.6C13.3 2.73333 13.4417 3.08333 13.525 3.65C13.6083 4.21667 13.7333 4.51667 13.9 4.55C14.1333 4.58333 14.7 4.28333 15.6 3.65C17.1333 2.58333 19.55 1.7 22.85 1C24.1833 0.666666 25.05 0.533332 25.45 0.599999C25.85 0.666666 26.35 0.966666 26.95 1.5C27.7167 2.26667 28.1167 3.2 28.15 4.3C28.1833 5.4 27.8167 6.43333 27.05 7.4C26.4833 8.23333 25.75 9.88333 24.85 12.35C23.95 14.8167 23.5 16.5167 23.5 17.45C23.5 18.1167 23.725 18.8417 24.175 19.625C24.625 20.4083 25.175 21.0583 25.825 21.575C26.475 22.0917 27.0667 22.35 27.6 22.35C28.4 22.35 30.0833 21.6833 32.65 20.35C35.2167 19.0167 37.2333 17.75 38.7 16.55C39.8 15.7167 40.5833 15.325 41.05 15.375C41.5167 15.425 41.75 15.9167 41.75 16.85C41.75 17.25 41.575 17.7083 41.225 18.225C40.875 18.7417 40.4167 19.2833 39.85 19.85C39.25 20.3833 38.55 20.925 37.75 21.475C36.95 22.025 36.1333 22.4667 35.3 22.8C33.1 23.8333 31.5167 24.5833 30.55 25.05C28.8833 25.8167 27.4083 26.0333 26.125 25.7C24.8417 25.3667 23.3333 24.3333 21.6 22.6C20.2 21.2 19.375 20.2417 19.125 19.725C18.875 19.2083 18.75 18.2167 18.75 16.75C18.75 14.6167 19.1333 12.4 19.9 10.1C20.5667 7.8 20.8333 6.55 20.7 6.35C20.5 6.15 19.15 7.225 16.65 9.575C14.15 11.925 11.7 14.4083 9.3 17.025C6.9 19.6417 5.7 21.15 5.7 21.55C5.7 21.8833 5.49167 22.25 5.075 22.65C4.65833 23.05 4.15 23.375 3.55 23.625C2.95 23.875 2.41667 23.95 1.95 23.85C1.18333 23.75 0.65 23.15 0.35 22.05C0.116666 21.3167 0.0833331 20.6667 0.25 20.1C0.416667 19.5333 0.983333 18.5333 1.95 17.1ZM71.1074 17.9C71.7408 17.4 72.2824 17.1917 72.7324 17.275C73.1824 17.3583 73.4074 17.8 73.4074 18.6C73.4074 18.7667 73.3741 18.9417 73.3074 19.125C73.2408 19.3083 73.1658 19.475 73.0824 19.625C72.9991 19.775 72.8741 19.9333 72.7074 20.1C72.5408 20.2667 72.3908 20.4167 72.2574 20.55C72.1241 20.6833 71.9574 20.825 71.7574 20.975C71.5574 21.125 71.3908 21.2417 71.2574 21.325C71.1241 21.4083 70.9574 21.5167 70.7574 21.65C70.5574 21.7833 70.4074 21.8833 70.3074 21.95C69.6741 22.3833 69.0074 22.75 68.3074 23.05C68.2408 23.0833 67.8408 23.2833 67.1074 23.65L66.8574 23.95C65.9574 24.8167 64.6574 25.35 62.9574 25.55C61.8908 25.6833 61.0658 25.6917 60.4824 25.575C59.8991 25.4583 59.0908 25.1667 58.0574 24.7C56.5241 23.9667 55.5074 23.3667 55.0074 22.9C54.6741 22.6333 54.3908 22.5167 54.1574 22.55C53.9241 22.5833 53.4908 22.85 52.8574 23.35C50.8241 24.8167 48.3991 25.6417 45.5824 25.825C42.7658 26.0083 40.9241 25.45 40.0574 24.15C39.5241 23.3167 39.2824 21.7 39.3324 19.3C39.3824 16.9 39.6908 15.1833 40.2574 14.15C40.7574 13.25 41.1408 12.5833 41.4074 12.15C41.7074 11.7167 41.9908 11.3167 42.2574 10.95C42.5241 10.55 42.9741 9.96667 43.6074 9.2C45.7074 6.6 47.3574 4.81667 48.5574 3.85C49.4908 3.11667 50.5908 2.49167 51.8574 1.975C53.1241 1.45833 54.4491 1.11667 55.8324 0.949999C57.2158 0.783332 58.4408 0.966666 59.5074 1.5C60.8074 2.16667 61.6074 3.30833 61.9074 4.925C62.2074 6.54167 62.1741 8.10833 61.8074 9.625C61.4408 11.1417 60.9241 12.5667 60.2574 13.9C59.6908 15.1667 59.2658 16.55 58.9824 18.05C58.6991 19.55 58.7074 20.5333 59.0074 21C59.6408 22.2667 61.7241 22.35 65.2574 21.25C65.3908 21.2167 65.5241 21.2 65.6574 21.2C65.8574 21.1333 66.0074 21.0667 66.1074 21C68.2408 19.9 69.9074 18.8667 71.1074 17.9ZM56.0074 8.5C56.3741 8.3 56.5741 8.13333 56.6074 8C56.6408 7.86667 56.5574 7.7 56.3574 7.5C55.9574 7.06667 55.3908 6.78333 54.6574 6.65C53.9241 6.51667 53.2074 6.55 52.5074 6.75C51.8074 6.91667 50.7491 7.58333 49.3324 8.75C47.9158 9.91667 46.9574 10.9167 46.4574 11.75C45.7908 12.7167 45.2241 13.5833 44.7574 14.35C44.1908 15.15 43.8074 16.3167 43.6074 17.85C43.4074 19.3833 43.4908 20.3833 43.8574 20.85C44.1908 21.25 44.9241 21.45 46.0574 21.45C47.1908 21.45 48.2574 21.2667 49.2574 20.9C50.2241 20.4333 50.9408 19.7333 51.4074 18.8C52.2074 17.2333 52.8574 15.9667 53.3574 15C54.2241 13.5 54.6574 12.4833 54.6574 11.95C54.6574 11.6167 54.7991 11.275 55.0824 10.925C55.3658 10.575 55.4408 10.2 55.3074 9.8C55.1408 9.26667 55.3741 8.83333 56.0074 8.5ZM139.06 14.65C139.793 14.05 140.435 13.8 140.985 13.9C141.535 14 141.827 14.5333 141.86 15.5C141.86 16.2667 141.427 17.075 140.56 17.925C139.693 18.775 138.843 19.35 138.01 19.65C137.477 19.85 136.893 19.8333 136.26 19.6C135.627 19.3667 135.127 19.1 134.76 18.8L134.21 18.3C134.177 18.3 134.002 18.1833 133.685 17.95C133.368 17.7167 132.993 17.4417 132.56 17.125C132.127 16.8083 131.635 16.5 131.085 16.2C130.535 15.9 130.027 15.6917 129.56 15.575C129.093 15.4583 128.677 15.4667 128.31 15.6C127.843 15.8333 127.368 16.25 126.885 16.85C126.402 17.45 125.902 18.1583 125.385 18.975C124.868 19.7917 124.493 20.3333 124.26 20.6C123.66 21.3333 123.152 21.8833 122.735 22.25C122.318 22.6167 121.81 22.95 121.21 23.25C120.143 23.7833 118.868 24.025 117.385 23.975C115.902 23.925 114.543 23.6167 113.31 23.05C111.91 22.35 110.885 22.0083 110.235 22.025C109.585 22.0417 109.093 22.3833 108.76 23.05C108.527 23.5167 108.21 23.8 107.81 23.9C107.41 24 106.543 23.9833 105.21 23.85C104.11 23.75 103.21 23.6 102.51 23.4C100.177 22.7333 98.4018 21.7 97.1852 20.3C95.9685 18.9 95.3435 17.3333 95.3102 15.6C95.2768 13.8667 95.5935 12.0917 96.2602 10.275C96.9268 8.45833 97.9102 6.68333 99.2102 4.95C99.8435 4.08333 100.477 3.6 101.11 3.5C101.41 3.43333 101.627 3.38333 101.76 3.35C101.993 3.31667 102.293 3.26667 102.66 3.2C102.927 3.2 103.277 3.6 103.71 4.4C104.043 5.3 103.927 6.56667 103.36 8.2C102.66 9.93333 102.31 12.0833 102.31 14.65C102.31 16.45 102.36 17.5583 102.46 17.975C102.56 18.3917 102.86 18.65 103.36 18.75C103.993 18.7833 104.893 18.2333 106.06 17.1C107.227 15.9667 107.81 15.05 107.81 14.35C107.81 13.85 108.243 13.3 109.11 12.7C110.11 12.0333 111.16 10.8333 112.26 9.1C113.427 7.2 114.46 6.15 115.36 5.95C116.993 5.51667 118.01 5.83333 118.41 6.9C118.81 7.96667 118.443 9.33333 117.31 11C116.443 12.2 115.743 13.6167 115.21 15.25C114.677 16.8833 114.56 17.9 114.86 18.3C114.993 18.6333 115.56 18.8 116.56 18.8C117.493 18.8 118.877 17.825 120.71 15.875C122.543 13.925 123.66 12.2333 124.06 10.8C124.393 9.36667 124.91 8.08333 125.61 6.95C126.043 6.25 126.443 5.78333 126.81 5.55C127.177 5.31667 127.727 5.2 128.46 5.2C129.193 5.2 129.743 5.475 130.11 6.025C130.477 6.575 130.693 7.20833 130.76 7.925C130.827 8.64167 130.985 9.425 131.235 10.275C131.485 11.125 131.843 11.7667 132.31 12.2C132.61 12.4667 133.077 12.7833 133.71 13.15C135.577 14.3167 137.043 15 138.11 15.2C138.11 15.2 138.127 15.2 138.16 15.2C138.593 14.9667 138.893 14.7833 139.06 14.65ZM169.398 17.9C170.032 17.4 170.573 17.1917 171.023 17.275C171.473 17.3583 171.698 17.8 171.698 18.6C171.698 18.7667 171.665 18.9417 171.598 19.125C171.532 19.3083 171.457 19.475 171.373 19.625C171.29 19.775 171.165 19.9333 170.998 20.1C170.832 20.2667 170.682 20.4167 170.548 20.55C170.415 20.6833 170.248 20.825 170.048 20.975C169.848 21.125 169.682 21.2417 169.548 21.325C169.415 21.4083 169.248 21.5167 169.048 21.65C168.848 21.7833 168.698 21.8833 168.598 21.95C167.965 22.3833 167.298 22.75 166.598 23.05C166.532 23.0833 166.132 23.2833 165.398 23.65L165.148 23.95C164.248 24.8167 162.948 25.35 161.248 25.55C160.182 25.6833 159.357 25.6917 158.773 25.575C158.19 25.4583 157.382 25.1667 156.348 24.7C154.815 23.9667 153.798 23.3667 153.298 22.9C152.965 22.6333 152.682 22.5167 152.448 22.55C152.215 22.5833 151.782 22.85 151.148 23.35C149.115 24.8167 146.69 25.6417 143.873 25.825C141.057 26.0083 139.215 25.45 138.348 24.15C137.815 23.3167 137.573 21.7 137.623 19.3C137.673 16.9 137.982 15.1833 138.548 14.15C139.048 13.25 139.432 12.5833 139.698 12.15C139.998 11.7167 140.282 11.3167 140.548 10.95C140.815 10.55 141.265 9.96667 141.898 9.2C143.998 6.6 145.648 4.81667 146.848 3.85C147.782 3.11667 148.882 2.49167 150.148 1.975C151.415 1.45833 152.74 1.11667 154.123 0.949999C155.507 0.783332 156.732 0.966666 157.798 1.5C159.098 2.16667 159.898 3.30833 160.198 4.925C160.498 6.54167 160.465 8.10833 160.098 9.625C159.732 11.1417 159.215 12.5667 158.548 13.9C157.982 15.1667 157.557 16.55 157.273 18.05C156.99 19.55 156.998 20.5333 157.298 21C157.932 22.2667 160.015 22.35 163.548 21.25C163.682 21.2167 163.815 21.2 163.948 21.2C164.148 21.1333 164.298 21.0667 164.398 21C166.532 19.9 168.198 18.8667 169.398 17.9ZM154.298 8.5C154.665 8.3 154.865 8.13333 154.898 8C154.932 7.86667 154.848 7.7 154.648 7.5C154.248 7.06667 153.682 6.78333 152.948 6.65C152.215 6.51667 151.498 6.55 150.798 6.75C150.098 6.91667 149.04 7.58333 147.623 8.75C146.207 9.91667 145.248 10.9167 144.748 11.75C144.082 12.7167 143.515 13.5833 143.048 14.35C142.482 15.15 142.098 16.3167 141.898 17.85C141.698 19.3833 141.782 20.3833 142.148 20.85C142.482 21.25 143.215 21.45 144.348 21.45C145.482 21.45 146.548 21.2667 147.548 20.9C148.515 20.4333 149.232 19.7333 149.698 18.8C150.498 17.2333 151.148 15.9667 151.648 15C152.515 13.5 152.948 12.4833 152.948 11.95C152.948 11.6167 153.09 11.275 153.373 10.925C153.657 10.575 153.732 10.2 153.598 9.8C153.432 9.26667 153.665 8.83333 154.298 8.5ZM166.598 17.1C167.132 16.2 168.165 14.1417 169.698 10.925C171.232 7.70833 172.548 5.45 173.648 4.15C173.815 3.91667 173.998 3.7 174.198 3.5C174.598 3.06667 175.148 2.74167 175.848 2.525C176.548 2.30833 177.182 2.33333 177.748 2.6C177.948 2.73333 178.09 3.08333 178.173 3.65C178.257 4.21667 178.382 4.51667 178.548 4.55C178.782 4.58333 179.348 4.28333 180.248 3.65C181.782 2.58333 184.198 1.7 187.498 1C188.832 0.666666 189.698 0.533332 190.098 0.599999C190.498 0.666666 190.998 0.966666 191.598 1.5C192.365 2.26667 192.765 3.2 192.798 4.3C192.832 5.4 192.465 6.43333 191.698 7.4C191.132 8.23333 190.398 9.88333 189.498 12.35C188.598 14.8167 188.148 16.5167 188.148 17.45C188.148 18.1167 188.373 18.8417 188.823 19.625C189.273 20.4083 189.823 21.0583 190.473 21.575C191.123 22.0917 191.715 22.35 192.248 22.35C193.048 22.35 194.732 21.6833 197.298 20.35C199.865 19.0167 201.882 17.75 203.348 16.55C204.448 15.7167 205.232 15.325 205.698 15.375C206.165 15.425 206.398 15.9167 206.398 16.85C206.398 17.25 206.223 17.7083 205.873 18.225C205.523 18.7417 205.065 19.2833 204.498 19.85C203.898 20.3833 203.198 20.925 202.398 21.475C201.598 22.025 200.782 22.4667 199.948 22.8C197.748 23.8333 196.165 24.5833 195.198 25.05C193.532 25.8167 192.057 26.0333 190.773 25.7C189.49 25.3667 187.982 24.3333 186.248 22.6C184.848 21.2 184.023 20.2417 183.773 19.725C183.523 19.2083 183.398 18.2167 183.398 16.75C183.398 14.6167 183.782 12.4 184.548 10.1C185.215 7.8 185.482 6.55 185.348 6.35C185.148 6.15 183.798 7.225 181.298 9.575C178.798 11.925 176.348 14.4083 173.948 17.025C171.548 19.6417 170.348 21.15 170.348 21.55C170.348 21.8833 170.14 22.25 169.723 22.65C169.307 23.05 168.798 23.375 168.198 23.625C167.598 23.875 167.065 23.95 166.598 23.85C165.832 23.75 165.298 23.15 164.998 22.05C164.765 21.3167 164.732 20.6667 164.898 20.1C165.065 19.5333 165.632 18.5333 166.598 17.1Z" fill="#9E090F"/>
</svg>
