<svg width="20" height="20" viewBox="0 0 20 20" fill="none" xmlns="http://www.w3.org/2000/svg">
<g clip-path="url(#clip0_253_97)">
<path d="M1.66699 14.0833C1.66699 12.9917 1.66699 12.4467 1.91283 12.0458C2.05021 11.8217 2.23868 11.6332 2.46283 11.4958C2.86283 11.25 3.40949 11.25 4.50033 11.25H5.41699C6.98866 11.25 7.77366 11.25 8.26199 11.7383C8.75033 12.2267 8.75033 13.0117 8.75033 14.5833V15.5C8.75033 16.5917 8.75033 17.1367 8.50449 17.5375C8.3671 17.7616 8.17864 17.9501 7.95449 18.0875C7.55449 18.3333 7.00783 18.3333 5.91699 18.3333C4.28033 18.3333 3.46199 18.3333 2.86116 17.965C2.52494 17.7589 2.24224 17.4762 2.03616 17.14M18.3337 5.91666C18.3337 7.00832 18.3337 7.55332 18.0878 7.95416C17.9504 8.1783 17.762 8.36677 17.5378 8.50416C17.1378 8.74999 16.5912 8.74999 15.5003 8.74999H14.5837C13.012 8.74999 12.227 8.74999 11.7387 8.26166C11.2503 7.77332 11.2503 6.98832 11.2503 5.41666V4.49999C11.2503 3.40832 11.2503 2.86332 11.4962 2.46249C11.6335 2.23834 11.822 2.04988 12.0462 1.91249C12.4462 1.66666 12.9928 1.66666 14.0837 1.66666C15.7203 1.66666 16.5387 1.66666 17.1403 2.03499C17.4765 2.24107 17.7592 2.52377 17.9653 2.85999" stroke="currentColor" stroke-width="1.5" stroke-linecap="round"/>
<path d="M13.75 5.20832C13.75 4.77916 13.75 4.56416 13.8583 4.41249C13.8961 4.35899 13.9426 4.31222 13.9958 4.27416C14.1475 4.16666 14.3625 4.16666 14.7917 4.16666C15.2208 4.16666 15.4358 4.16666 15.5875 4.27499C15.641 4.31273 15.6878 4.35922 15.7258 4.41249C15.8333 4.56416 15.8333 4.77916 15.8333 5.20832C15.8333 5.63749 15.8333 5.85249 15.725 6.00416C15.6873 6.05766 15.6408 6.10442 15.5875 6.14249C15.4358 6.24999 15.2208 6.24999 14.7917 6.24999C14.3625 6.24999 14.1475 6.24999 13.9958 6.14166C13.9423 6.10391 13.8956 6.05743 13.8575 6.00416C13.75 5.85249 13.75 5.63749 13.75 5.20832ZM10.625 18.3333C10.625 18.4991 10.6908 18.6581 10.8081 18.7753C10.9253 18.8925 11.0842 18.9583 11.25 18.9583C11.4158 18.9583 11.5747 18.8925 11.6919 18.7753C11.8092 18.6581 11.875 18.4991 11.875 18.3333H10.625ZM15.8333 10.625H14.1667V11.875H15.8333V10.625ZM10.625 15.8333V18.3333H11.875V15.8333H10.625ZM14.1667 10.625C13.5942 10.625 13.1183 10.625 12.7342 10.6633C12.3392 10.7033 11.9733 10.7908 11.6433 11.0117L12.3383 12.0508C12.4283 11.99 12.565 11.9367 12.8608 11.9067C13.1667 11.8758 13.5692 11.875 14.1667 11.875V10.625ZM11.875 14.1667C11.875 13.5683 11.875 13.1667 11.9067 12.8608C11.9367 12.565 11.99 12.4283 12.0508 12.3383L11.0117 11.6433C10.7917 11.9733 10.7033 12.3392 10.6633 12.7342C10.6242 13.1183 10.625 13.5942 10.625 14.1667H11.875ZM11.6433 11.0117C11.3933 11.1783 11.1783 11.3933 11.0117 11.6433L12.0508 12.3383C12.1277 12.2252 12.2252 12.1277 12.3383 12.0508L11.6433 11.0117ZM18.9583 11.25C18.9583 11.0842 18.8925 10.9253 18.7753 10.808C18.6581 10.6908 18.4991 10.625 18.3333 10.625C18.1676 10.625 18.0086 10.6908 17.8914 10.808C17.7742 10.9253 17.7083 11.0842 17.7083 11.25H18.9583ZM14.1667 18.9583H15.8333V17.7083H14.1667V18.9583ZM18.9583 14.1667V11.25H17.7083V14.1667H18.9583ZM15.8333 18.9583C16.2133 18.9583 16.5292 18.9583 16.7875 18.9417C17.0517 18.9233 17.3017 18.885 17.5433 18.7842L17.065 17.6292C17.0008 17.6558 16.9033 17.68 16.7025 17.6942C16.4967 17.7083 16.23 17.7083 15.8333 17.7083V18.9583ZM17.7083 15.8333C17.7083 16.23 17.7083 16.4967 17.6942 16.7025C17.68 16.9033 17.6558 17.0008 17.6292 17.065L18.7842 17.5433C18.8842 17.3017 18.9233 17.0517 18.9408 16.7875C18.9583 16.5292 18.9583 16.2125 18.9583 15.8333H17.7083ZM17.5433 18.7842C17.8215 18.6691 18.0742 18.4995 18.2871 18.2868C18.5 18.074 18.6689 17.8214 18.7842 17.5433L17.6292 17.065C17.5768 17.1915 17.5 17.3064 17.4032 17.4032C17.3064 17.5 17.1915 17.5768 17.065 17.6292L17.5433 18.7842Z" fill="currentColor"/>
<path d="M1.66699 5.91666C1.66699 4.27999 1.66699 3.46166 2.03533 2.86082C2.24141 2.5246 2.52411 2.24191 2.86033 2.03582C3.46283 1.66666 4.28116 1.66666 5.91699 1.66666C7.00866 1.66666 7.55366 1.66666 7.95449 1.91249C8.17864 2.04988 8.3671 2.23834 8.50449 2.46249C8.75033 2.86249 8.75033 3.40916 8.75033 4.49999V5.41666C8.75033 6.98832 8.75033 7.77332 8.26199 8.26166C7.77366 8.74999 6.98866 8.74999 5.41699 8.74999H4.50033C3.40866 8.74999 2.86366 8.74999 2.46283 8.50416C2.23868 8.36677 2.05021 8.1783 1.91283 7.95416C1.66699 7.55416 1.66699 7.00749 1.66699 5.91666Z" stroke="currentColor" stroke-width="1.5"/>
<path d="M4.16699 5.20832C4.16699 4.77916 4.16699 4.56416 4.27533 4.41249C4.31307 4.35899 4.35955 4.31222 4.41283 4.27416C4.56449 4.16666 4.77949 4.16666 5.20866 4.16666C5.63783 4.16666 5.85283 4.16666 6.00449 4.27499C6.05799 4.31273 6.10476 4.35922 6.14283 4.41249C6.25033 4.56416 6.25033 4.77916 6.25033 5.20832C6.25033 5.63749 6.25033 5.85249 6.14199 6.00416C6.10425 6.05766 6.05776 6.10442 6.00449 6.14249C5.85283 6.24999 5.63783 6.24999 5.20866 6.24999C4.77949 6.24999 4.56449 6.24999 4.41283 6.14166C4.35932 6.10391 4.31256 6.05743 4.27449 6.00416C4.16699 5.85249 4.16699 5.63749 4.16699 5.20832ZM4.16699 14.7917C4.16699 14.3625 4.16699 14.1475 4.27533 13.9958C4.31307 13.9423 4.35955 13.8956 4.41283 13.8575C4.56449 13.75 4.77949 13.75 5.20866 13.75C5.63783 13.75 5.85283 13.75 6.00449 13.8583C6.05799 13.8961 6.10476 13.9426 6.14283 13.9958C6.25033 14.1475 6.25033 14.3625 6.25033 14.7917C6.25033 15.2208 6.25033 15.4358 6.14199 15.5875C6.10425 15.641 6.05776 15.6878 6.00449 15.7258C5.85283 15.8333 5.63783 15.8333 5.20866 15.8333C4.77949 15.8333 4.56449 15.8333 4.41283 15.725C4.35932 15.6872 4.31256 15.6408 4.27449 15.5875C4.16699 15.4358 4.16699 15.2208 4.16699 14.7917ZM13.3337 14.7917C13.3337 14.2067 13.3337 13.9142 13.4745 13.7033C13.5351 13.6127 13.613 13.5348 13.7037 13.4742C13.9145 13.3333 14.207 13.3333 14.792 13.3333C15.377 13.3333 15.6695 13.3333 15.8803 13.4742C15.971 13.5348 16.0488 13.6127 16.1095 13.7033C16.2503 13.9142 16.2503 14.2067 16.2503 14.7917C16.2503 15.3767 16.2503 15.6692 16.1095 15.88C16.0488 15.9706 15.971 16.0485 15.8803 16.1092C15.6695 16.25 15.377 16.25 14.792 16.25C14.207 16.25 13.9145 16.25 13.7037 16.1092C13.613 16.0485 13.5351 15.9706 13.4745 15.88C13.3337 15.6692 13.3337 15.3767 13.3337 14.7917Z" fill="currentColor"/>
</g>
<defs>
<clipPath id="clip0_253_97">
<rect width="20" height="20" fill="white"/>
</clipPath>
</defs>
</svg>
