<svg width="60" height="60" viewBox="0 0 60 60" fill="none" xmlns="http://www.w3.org/2000/svg">
<rect width="60" height="60" rx="10" fill="#F5F5F5"/>
<path d="M40.5 15H19.5C17.019 15 15 17.019 15 19.5V23.7465C15 25.326 15.573 26.7615 16.5 27.8655V42C16.5 42.3978 16.658 42.7794 16.9393 43.0607C17.2206 43.342 17.6022 43.5 18 43.5H30C30.3978 43.5 30.7794 43.342 31.0607 43.0607C31.342 42.7794 31.5 42.3978 31.5 42V34.5H37.5V42C37.5 42.3978 37.658 42.7794 37.9393 43.0607C38.2206 43.342 38.6022 43.5 39 43.5H42C42.3978 43.5 42.7794 43.342 43.0607 43.0607C43.342 42.7794 43.5 42.3978 43.5 42V27.864C44.427 26.7615 45 25.326 45 23.745V19.5C45 17.019 42.981 15 40.5 15ZM42 19.5V23.7465C42 25.4565 40.7265 26.9145 39.1635 26.997L39 27C37.3455 27 36 25.6545 36 24V18H40.5C41.328 18 42 18.6735 42 19.5ZM27 24V18H33V24C33 25.6545 31.6545 27 30 27C28.3455 27 27 25.6545 27 24ZM18 19.5C18 18.6735 18.672 18 19.5 18H24V24C24 25.6545 22.6545 27 21 27L20.8365 26.9955C19.2735 26.9145 18 25.4565 18 23.7465V19.5ZM27 36H21V31.5H27V36Z" fill="#9E090F"/>
</svg>
